<svg width="300" height="199" viewBox="0 0 300 199" fill="none" xmlns="http://www.w3.org/2000/svg">
<g clip-path="url(#clip0_694_12)">
<path d="M86.934 2.39189e-05C95.0841 2.39189e-05 103.234 0.777421 110.996 2.33223C117.594 3.88704 123.803 6.60794 129.625 10.495C134.67 14.382 138.939 19.4351 141.656 25.2656C144.761 32.651 146.313 40.425 145.925 48.199C146.313 56.7505 143.984 65.3019 139.715 72.6872C135.058 79.6839 128.461 85.1257 121.087 88.624C131.565 91.3449 140.492 97.9528 146.313 106.504C152.135 115.833 154.851 126.717 154.851 137.6C154.851 146.541 153.299 155.092 149.418 162.866C145.925 169.863 140.88 175.693 135.058 180.746C128.849 185.411 121.475 188.909 114.101 190.853C106.339 193.185 98.1889 193.962 90.0388 193.962H0V-0.388672H86.934V2.39189e-05ZM81.5006 78.5178C87.7102 78.9065 94.3079 76.963 99.3532 73.076C104.398 68.8002 107.115 62.1923 106.339 55.1957C106.339 51.3086 105.563 47.4216 104.01 43.9233C102.458 41.2024 100.517 38.8702 97.8008 37.3154C95.0841 35.7606 91.9793 34.2058 88.8745 33.8171C85.3816 33.0397 81.8887 33.0397 78.3958 33.0397H40.3622V78.5178H81.5006ZM83.8292 161.7C87.7102 161.7 91.5912 161.311 95.0841 160.534C98.577 159.756 101.682 158.202 104.787 156.258C107.503 154.315 109.832 151.594 111.384 148.484C113.325 144.597 114.101 140.321 113.713 136.046C114.489 127.883 111.384 120.109 105.563 114.667C99.3531 110.003 91.9793 108.059 84.2173 108.448H40.3622V162.089H83.8292V161.7Z" fill="white"/>
<path d="M212.29 160.923C218.887 166.753 227.426 169.863 235.964 169.474C242.95 169.474 249.547 167.531 254.981 163.644C259.638 160.534 262.743 156.258 264.683 151.205H296.895C293.402 165.587 284.864 178.414 273.221 187.354C261.966 195.128 248.383 198.627 234.411 198.238C224.709 198.238 215.006 196.683 205.692 192.796C197.542 189.298 190.168 184.245 184.347 177.637C178.525 170.64 173.868 162.866 170.763 154.315C167.27 144.597 165.718 134.491 166.106 124.385C166.106 114.278 167.658 104.561 171.151 94.8433C180.466 67.6342 206.08 49.3652 234.799 49.7539C245.278 49.3652 255.369 52.0861 264.683 56.7505C272.833 61.4149 280.207 67.6342 285.64 75.4082C291.074 83.5709 295.343 92.5111 297.283 102.229C299.612 112.335 300.388 123.218 300 133.713H203.752C202.587 143.431 205.692 153.149 212.29 160.923ZM254.204 86.6806C248.771 81.2387 241.397 78.5178 233.635 78.9065C228.59 78.9065 223.545 79.6839 219.276 82.0161C215.783 83.9596 212.678 86.6805 209.961 89.7902C207.633 92.8998 206.08 96.0094 204.916 99.8964C204.14 103.006 203.363 106.116 203.363 109.225H263.131C262.354 101.063 259.25 93.2885 254.204 86.6806Z" fill="white"/>
<path d="M270.116 12.8271H195.602V31.8735H270.116V12.8271Z" fill="white"/>
</g>
<defs>
<clipPath id="clip0_694_12">
<rect width="300" height="198.238" fill="white"/>
</clipPath>
</defs>
</svg>
