<svg width="42" height="64" viewBox="0 0 42 64" fill="none" xmlns="http://www.w3.org/2000/svg">
<g clip-path="url(#clip0_224_2)">
<path d="M21 32C21 26.169 25.6531 21.4419 31.3931 21.4419C37.133 21.4419 41.7862 26.169 41.7862 32C41.7862 37.8311 37.133 42.558 31.3931 42.558C25.6531 42.558 21 37.8311 21 32Z" fill="#1ABCFE"/>
<path d="M0.213867 53.1162C0.213867 47.2852 4.86701 42.5581 10.607 42.5581H21.0001V53.1162C21.0001 58.9473 16.347 63.6743 10.607 63.6743C4.86701 63.6743 0.213867 58.9473 0.213867 53.1162Z" fill="#0ACF83"/>
<path d="M21 0.325806V21.4419H31.3931C37.1331 21.4419 41.7862 16.7149 41.7862 10.8839C41.7862 5.05282 37.1331 0.325806 31.3931 0.325806H21Z" fill="#FF7262"/>
<path d="M0.213867 10.8839C0.213867 16.7149 4.86701 21.4419 10.607 21.4419H21.0001V0.325806H10.607C4.86701 0.325806 0.213867 5.05281 0.213867 10.8839Z" fill="#F24E1E"/>
<path d="M0.213867 32C0.213867 37.8311 4.86701 42.558 10.607 42.558H21.0001V21.4419H10.607C4.86701 21.4419 0.213867 26.169 0.213867 32Z" fill="#A259FF"/>
</g>
<defs>
<clipPath id="clip0_224_2">
<rect width="42" height="64" fill="white"/>
</clipPath>
</defs>
</svg>
