<svg width="301" height="347" viewBox="0 0 301 347" fill="none" xmlns="http://www.w3.org/2000/svg">
<g clip-path="url(#clip0_694_27)">
<path d="M90.9282 139.835C90.4139 139.835 90.0711 139.835 89.7282 139.492C78.0711 124.063 75.1568 97.4919 74.4711 87.3776C74.2996 85.4062 72.0711 84.3776 70.3568 85.3205C34.3568 105.463 0.928223 153.292 0.928223 199.406C0.928223 278.863 56.0425 345.463 150.928 345.463C239.814 345.463 300.928 276.892 300.928 199.492C300.928 98.2633 228.671 31.2348 164.3 0.891911C162.585 0.0347677 160.7 1.49191 160.871 3.29191C169.271 57.8919 157.785 117.12 90.8425 140.006L90.9282 139.835Z" fill="white"/>
</g>
<defs>
<clipPath id="clip0_694_27">
<rect width="300" height="345.703" fill="white" transform="translate(0.928223 0.411743)"/>
</clipPath>
</defs>
</svg>
